<svg width="21" height="32" viewBox="0 0 21 32" fill="none" xmlns="http://www.w3.org/2000/svg">
<path d="M19.4591 4.9038L7.46048 16.0143L19.4591 27.1249C20.6651 28.2416 20.6651 30.0457 19.4591 31.1625C19.173 31.4279 18.8332 31.6386 18.4591 31.7823C18.085 31.926 17.684 32 17.2789 32C16.8739 32 16.4729 31.926 16.0988 31.7823C15.7247 31.6386 15.3849 31.4279 15.0988 31.1625L0.904534 18.0188C-0.301513 16.902 -0.301513 15.098 0.904534 13.9812L15.0988 0.837584C16.3048 -0.279195 18.2531 -0.279195 19.4591 0.837584C20.6342 1.95436 20.6651 3.78702 19.4591 4.9038Z" fill="white"/>
</svg>
