<svg width="21" height="32" viewBox="0 0 21 32" fill="none" xmlns="http://www.w3.org/2000/svg">
<path d="M1.5409 4.9038L13.5395 16.0143L1.5409 27.1249C0.334851 28.2416 0.33485 30.0457 1.5409 31.1625C1.82697 31.4279 2.16679 31.6386 2.54089 31.7823C2.915 31.926 3.31604 32 3.72106 32C4.12608 32 4.52713 31.926 4.90123 31.7823C5.27534 31.6386 5.61515 31.4279 5.90122 31.1625L20.0955 18.0188C21.3015 16.902 21.3015 15.098 20.0955 13.9812L5.90122 0.837584C4.69518 -0.279195 2.74695 -0.279195 1.5409 0.837584C0.365777 1.95436 0.334853 3.78702 1.5409 4.9038Z" fill="white"/>
</svg>
